<mxfile host="app.diagrams.net" modified="2023-07-15T07:38:29.464Z" agent="Mozilla/5.0 (Windows NT 10.0; Win64; x64) AppleWebKit/537.36 (KHTML, like Gecko) Chrome/114.0.0.0 Safari/537.36 Edg/114.0.1823.82" etag="eNI8ApLBlYX5yLgrUTUB" version="21.6.2" type="github">
  <diagram name="Page-1" id="74e2e168-ea6b-b213-b513-2b3c1d86103e">
    <mxGraphModel dx="1166" dy="775" grid="1" gridSize="10" guides="1" tooltips="1" connect="1" arrows="1" fold="1" page="1" pageScale="1" pageWidth="1100" pageHeight="850" background="none" math="0" shadow="0">
      <root>
        <mxCell id="0" />
        <mxCell id="1" parent="0" />
        <mxCell id="77e6c97f196da883-1" value="&lt;span style=&quot;font-weight: normal;&quot;&gt;&lt;font style=&quot;font-size: 14px;&quot;&gt;系统业务流程图&lt;/font&gt;&lt;/span&gt;" style="swimlane;html=1;childLayout=stackLayout;startSize=30;rounded=0;shadow=0;labelBackgroundColor=none;strokeWidth=1;fontFamily=Verdana;fontSize=8;align=center;" parent="1" vertex="1">
          <mxGeometry x="170" y="40" width="800" height="910" as="geometry">
            <mxRectangle x="70" y="40" width="120" height="30" as="alternateBounds" />
          </mxGeometry>
        </mxCell>
        <mxCell id="77e6c97f196da883-2" value="&lt;span style=&quot;font-weight: normal;&quot;&gt;借款人&lt;/span&gt;" style="swimlane;html=1;startSize=20;" parent="77e6c97f196da883-1" vertex="1">
          <mxGeometry y="30" width="160" height="880" as="geometry" />
        </mxCell>
        <mxCell id="mDyyO91sDNpQwvjCnJdp-6" value="" style="edgeStyle=orthogonalEdgeStyle;rounded=0;orthogonalLoop=1;jettySize=auto;html=1;" parent="77e6c97f196da883-2" edge="1">
          <mxGeometry relative="1" as="geometry">
            <mxPoint x="80" y="70" as="sourcePoint" />
            <mxPoint x="80" y="100" as="targetPoint" />
          </mxGeometry>
        </mxCell>
        <mxCell id="mDyyO91sDNpQwvjCnJdp-12" value="" style="edgeStyle=orthogonalEdgeStyle;rounded=0;orthogonalLoop=1;jettySize=auto;html=1;" parent="77e6c97f196da883-2" edge="1">
          <mxGeometry relative="1" as="geometry">
            <mxPoint x="80" y="70" as="sourcePoint" />
            <mxPoint x="80" y="100" as="targetPoint" />
          </mxGeometry>
        </mxCell>
        <mxCell id="mDyyO91sDNpQwvjCnJdp-11" value="&lt;span style=&quot;font-weight: normal;&quot;&gt;借款人&lt;/span&gt;" style="swimlane;html=1;startSize=30;" parent="77e6c97f196da883-2" vertex="1">
          <mxGeometry width="160" height="880" as="geometry" />
        </mxCell>
        <mxCell id="mDyyO91sDNpQwvjCnJdp-39" value="" style="edgeStyle=orthogonalEdgeStyle;rounded=0;orthogonalLoop=1;jettySize=auto;html=1;" parent="mDyyO91sDNpQwvjCnJdp-11" source="mDyyO91sDNpQwvjCnJdp-36" target="mDyyO91sDNpQwvjCnJdp-38" edge="1">
          <mxGeometry relative="1" as="geometry" />
        </mxCell>
        <mxCell id="mDyyO91sDNpQwvjCnJdp-36" value="展示可用额度" style="rounded=1;whiteSpace=wrap;html=1;" parent="mDyyO91sDNpQwvjCnJdp-11" vertex="1">
          <mxGeometry x="30" y="425" width="100" height="30" as="geometry" />
        </mxCell>
        <mxCell id="mDyyO91sDNpQwvjCnJdp-38" value="借款预申请" style="rounded=1;whiteSpace=wrap;html=1;" parent="mDyyO91sDNpQwvjCnJdp-11" vertex="1">
          <mxGeometry x="30" y="480" width="100" height="30" as="geometry" />
        </mxCell>
        <mxCell id="mDyyO91sDNpQwvjCnJdp-55" style="edgeStyle=orthogonalEdgeStyle;rounded=0;orthogonalLoop=1;jettySize=auto;html=1;" parent="mDyyO91sDNpQwvjCnJdp-11" source="mDyyO91sDNpQwvjCnJdp-52" edge="1">
          <mxGeometry relative="1" as="geometry">
            <mxPoint x="80" y="650" as="targetPoint" />
          </mxGeometry>
        </mxCell>
        <mxCell id="mDyyO91sDNpQwvjCnJdp-52" value="放款入账" style="rounded=1;whiteSpace=wrap;html=1;" parent="mDyyO91sDNpQwvjCnJdp-11" vertex="1">
          <mxGeometry x="30" y="590" width="100" height="30" as="geometry" />
        </mxCell>
        <mxCell id="mDyyO91sDNpQwvjCnJdp-58" value="" style="endArrow=classic;html=1;rounded=0;entryX=0;entryY=0.5;entryDx=0;entryDy=0;" parent="mDyyO91sDNpQwvjCnJdp-11" target="mDyyO91sDNpQwvjCnJdp-56" edge="1">
          <mxGeometry width="50" height="50" relative="1" as="geometry">
            <mxPoint x="110" y="650" as="sourcePoint" />
            <mxPoint x="150" y="670" as="targetPoint" />
            <Array as="points">
              <mxPoint x="110" y="685" />
            </Array>
          </mxGeometry>
        </mxCell>
        <mxCell id="mDyyO91sDNpQwvjCnJdp-67" style="edgeStyle=orthogonalEdgeStyle;rounded=0;orthogonalLoop=1;jettySize=auto;html=1;" parent="mDyyO91sDNpQwvjCnJdp-11" source="mDyyO91sDNpQwvjCnJdp-61" edge="1">
          <mxGeometry relative="1" as="geometry">
            <mxPoint x="700" y="750" as="targetPoint" />
            <Array as="points">
              <mxPoint x="700" y="715" />
            </Array>
          </mxGeometry>
        </mxCell>
        <mxCell id="mDyyO91sDNpQwvjCnJdp-61" value="还款（分类型）" style="rounded=1;whiteSpace=wrap;html=1;" parent="mDyyO91sDNpQwvjCnJdp-11" vertex="1">
          <mxGeometry x="30" y="700" width="100" height="30" as="geometry" />
        </mxCell>
        <mxCell id="mDyyO91sDNpQwvjCnJdp-63" value="" style="endArrow=classic;html=1;rounded=0;entryX=0.25;entryY=0;entryDx=0;entryDy=0;" parent="mDyyO91sDNpQwvjCnJdp-11" target="mDyyO91sDNpQwvjCnJdp-61" edge="1">
          <mxGeometry width="50" height="50" relative="1" as="geometry">
            <mxPoint x="55" y="655" as="sourcePoint" />
            <mxPoint x="70" y="660" as="targetPoint" />
          </mxGeometry>
        </mxCell>
        <mxCell id="AETj799gdBT1766y-k5W-1" value="" style="whiteSpace=wrap;html=1;rounded=0;shadow=0;comic=0;labelBackgroundColor=none;strokeWidth=1;fillColor=#000000;fontFamily=Verdana;fontSize=12;align=center;rotation=0;" vertex="1" parent="mDyyO91sDNpQwvjCnJdp-11">
          <mxGeometry x="6.5" y="650" width="147" height="10" as="geometry" />
        </mxCell>
        <mxCell id="AETj799gdBT1766y-k5W-17" value="" style="ellipse;whiteSpace=wrap;html=1;rounded=0;shadow=0;comic=0;labelBackgroundColor=none;strokeWidth=1;fillColor=#000000;fontFamily=Verdana;fontSize=12;align=center;" vertex="1" parent="mDyyO91sDNpQwvjCnJdp-11">
          <mxGeometry x="65" y="40" width="30" height="30" as="geometry" />
        </mxCell>
        <mxCell id="AETj799gdBT1766y-k5W-22" value="开户申请" style="rounded=1;whiteSpace=wrap;html=1;" vertex="1" parent="mDyyO91sDNpQwvjCnJdp-11">
          <mxGeometry x="30" y="100" width="100" height="30" as="geometry" />
        </mxCell>
        <mxCell id="AETj799gdBT1766y-k5W-24" value="申请授信可用额度" style="rounded=1;whiteSpace=wrap;html=1;" vertex="1" parent="mDyyO91sDNpQwvjCnJdp-11">
          <mxGeometry x="25" y="220" width="110" height="30" as="geometry" />
        </mxCell>
        <mxCell id="77e6c97f196da883-4" value="&lt;span style=&quot;font-weight: normal;&quot;&gt;决策引擎&lt;/span&gt;" style="swimlane;html=1;startSize=30;" parent="77e6c97f196da883-1" vertex="1">
          <mxGeometry x="160" y="30" width="160" height="880" as="geometry" />
        </mxCell>
        <mxCell id="mDyyO91sDNpQwvjCnJdp-10" value="" style="edgeStyle=orthogonalEdgeStyle;rounded=0;orthogonalLoop=1;jettySize=auto;html=1;" parent="77e6c97f196da883-4" target="mDyyO91sDNpQwvjCnJdp-9" edge="1">
          <mxGeometry relative="1" as="geometry">
            <mxPoint x="85" y="130" as="sourcePoint" />
          </mxGeometry>
        </mxCell>
        <mxCell id="mDyyO91sDNpQwvjCnJdp-19" value="" style="edgeStyle=orthogonalEdgeStyle;rounded=0;orthogonalLoop=1;jettySize=auto;html=1;" parent="77e6c97f196da883-4" source="mDyyO91sDNpQwvjCnJdp-9" edge="1">
          <mxGeometry relative="1" as="geometry">
            <mxPoint x="85" y="240" as="targetPoint" />
          </mxGeometry>
        </mxCell>
        <mxCell id="mDyyO91sDNpQwvjCnJdp-21" value="审批不通过" style="edgeLabel;html=1;align=center;verticalAlign=middle;resizable=0;points=[];" parent="mDyyO91sDNpQwvjCnJdp-19" vertex="1" connectable="0">
          <mxGeometry x="-0.2" relative="1" as="geometry">
            <mxPoint y="4" as="offset" />
          </mxGeometry>
        </mxCell>
        <mxCell id="mDyyO91sDNpQwvjCnJdp-9" value="" style="rhombus;whiteSpace=wrap;html=1;" parent="77e6c97f196da883-4" vertex="1">
          <mxGeometry x="55" y="160" width="60" height="30" as="geometry" />
        </mxCell>
        <mxCell id="mDyyO91sDNpQwvjCnJdp-25" value="" style="edgeStyle=orthogonalEdgeStyle;rounded=0;orthogonalLoop=1;jettySize=auto;html=1;" parent="77e6c97f196da883-4" source="mDyyO91sDNpQwvjCnJdp-22" target="mDyyO91sDNpQwvjCnJdp-24" edge="1">
          <mxGeometry relative="1" as="geometry" />
        </mxCell>
        <mxCell id="mDyyO91sDNpQwvjCnJdp-22" value="反欺诈、风险决策" style="rounded=1;whiteSpace=wrap;html=1;" parent="77e6c97f196da883-4" vertex="1">
          <mxGeometry x="35" y="290" width="100" height="30" as="geometry" />
        </mxCell>
        <mxCell id="mDyyO91sDNpQwvjCnJdp-32" value="" style="edgeStyle=orthogonalEdgeStyle;rounded=0;orthogonalLoop=1;jettySize=auto;html=1;" parent="77e6c97f196da883-4" source="mDyyO91sDNpQwvjCnJdp-24" target="mDyyO91sDNpQwvjCnJdp-31" edge="1">
          <mxGeometry relative="1" as="geometry" />
        </mxCell>
        <mxCell id="mDyyO91sDNpQwvjCnJdp-35" value="审批通过" style="edgeLabel;html=1;align=center;verticalAlign=middle;resizable=0;points=[];" parent="mDyyO91sDNpQwvjCnJdp-32" vertex="1" connectable="0">
          <mxGeometry x="0.3333" y="1" relative="1" as="geometry">
            <mxPoint x="-1" y="-7" as="offset" />
          </mxGeometry>
        </mxCell>
        <mxCell id="mDyyO91sDNpQwvjCnJdp-24" value="" style="rhombus;whiteSpace=wrap;html=1;" parent="77e6c97f196da883-4" vertex="1">
          <mxGeometry x="55" y="350" width="60" height="30" as="geometry" />
        </mxCell>
        <mxCell id="mDyyO91sDNpQwvjCnJdp-31" value="信用等级评估" style="rounded=1;whiteSpace=wrap;html=1;" parent="77e6c97f196da883-4" vertex="1">
          <mxGeometry x="35" y="425" width="100" height="30" as="geometry" />
        </mxCell>
        <mxCell id="mDyyO91sDNpQwvjCnJdp-40" value="自动化校验" style="rounded=1;whiteSpace=wrap;html=1;" parent="77e6c97f196da883-4" vertex="1">
          <mxGeometry x="35" y="480" width="100" height="30" as="geometry" />
        </mxCell>
        <mxCell id="mDyyO91sDNpQwvjCnJdp-66" style="edgeStyle=orthogonalEdgeStyle;rounded=0;orthogonalLoop=1;jettySize=auto;html=1;" parent="77e6c97f196da883-4" source="mDyyO91sDNpQwvjCnJdp-56" edge="1">
          <mxGeometry relative="1" as="geometry">
            <mxPoint x="590" y="750" as="targetPoint" />
          </mxGeometry>
        </mxCell>
        <mxCell id="mDyyO91sDNpQwvjCnJdp-56" value="贷后监控" style="rounded=1;whiteSpace=wrap;html=1;" parent="77e6c97f196da883-4" vertex="1">
          <mxGeometry x="30" y="670" width="100" height="30" as="geometry" />
        </mxCell>
        <mxCell id="AETj799gdBT1766y-k5W-21" value="" style="shape=mxgraph.bpmn.shape;html=1;verticalLabelPosition=bottom;labelBackgroundColor=#ffffff;verticalAlign=top;perimeter=ellipsePerimeter;outline=end;symbol=terminate;rounded=0;shadow=0;comic=0;strokeWidth=1;fontFamily=Verdana;fontSize=12;align=center;" vertex="1" parent="77e6c97f196da883-4">
          <mxGeometry x="70" y="240" width="30" height="30" as="geometry" />
        </mxCell>
        <mxCell id="AETj799gdBT1766y-k5W-23" value="资格审批" style="rounded=1;whiteSpace=wrap;html=1;" vertex="1" parent="77e6c97f196da883-4">
          <mxGeometry x="40" y="100" width="100" height="30" as="geometry" />
        </mxCell>
        <mxCell id="77e6c97f196da883-5" value="&lt;span style=&quot;font-weight: normal;&quot;&gt;审批子系统&lt;/span&gt;" style="swimlane;html=1;startSize=30;" parent="77e6c97f196da883-1" vertex="1">
          <mxGeometry x="320" y="30" width="160" height="880" as="geometry" />
        </mxCell>
        <mxCell id="mDyyO91sDNpQwvjCnJdp-28" value="人工审批" style="rounded=1;whiteSpace=wrap;html=1;" parent="77e6c97f196da883-5" vertex="1">
          <mxGeometry x="30" y="350" width="100" height="30" as="geometry" />
        </mxCell>
        <mxCell id="77e6c97f196da883-6" value="&lt;span style=&quot;font-weight: normal;&quot;&gt;借款子系统&lt;/span&gt;" style="swimlane;html=1;startSize=30;" parent="77e6c97f196da883-1" vertex="1">
          <mxGeometry x="480" y="30" width="160" height="880" as="geometry" />
        </mxCell>
        <mxCell id="mDyyO91sDNpQwvjCnJdp-49" value="" style="edgeStyle=orthogonalEdgeStyle;rounded=0;orthogonalLoop=1;jettySize=auto;html=1;" parent="77e6c97f196da883-6" source="mDyyO91sDNpQwvjCnJdp-42" target="mDyyO91sDNpQwvjCnJdp-48" edge="1">
          <mxGeometry relative="1" as="geometry" />
        </mxCell>
        <mxCell id="mDyyO91sDNpQwvjCnJdp-42" value="借款试算" style="rounded=1;whiteSpace=wrap;html=1;" parent="77e6c97f196da883-6" vertex="1">
          <mxGeometry x="40" y="480" width="100" height="30" as="geometry" />
        </mxCell>
        <mxCell id="mDyyO91sDNpQwvjCnJdp-51" value="" style="edgeStyle=orthogonalEdgeStyle;rounded=0;orthogonalLoop=1;jettySize=auto;html=1;" parent="77e6c97f196da883-6" source="mDyyO91sDNpQwvjCnJdp-48" target="mDyyO91sDNpQwvjCnJdp-50" edge="1">
          <mxGeometry relative="1" as="geometry" />
        </mxCell>
        <mxCell id="mDyyO91sDNpQwvjCnJdp-48" value="生成还款计划" style="rounded=1;whiteSpace=wrap;html=1;" parent="77e6c97f196da883-6" vertex="1">
          <mxGeometry x="40" y="540" width="100" height="30" as="geometry" />
        </mxCell>
        <mxCell id="mDyyO91sDNpQwvjCnJdp-50" value="放款并生成借据详情" style="rounded=1;whiteSpace=wrap;html=1;" parent="77e6c97f196da883-6" vertex="1">
          <mxGeometry x="40" y="590" width="100" height="30" as="geometry" />
        </mxCell>
        <mxCell id="77e6c97f196da883-7" value="&lt;span style=&quot;font-weight: normal;&quot;&gt;还款子系统&lt;/span&gt;" style="swimlane;html=1;startSize=30;" parent="77e6c97f196da883-1" vertex="1">
          <mxGeometry x="640" y="30" width="160" height="880" as="geometry" />
        </mxCell>
        <mxCell id="mDyyO91sDNpQwvjCnJdp-68" value="还款处理" style="rounded=1;whiteSpace=wrap;html=1;" parent="77e6c97f196da883-7" vertex="1">
          <mxGeometry x="30" y="790" width="100" height="30" as="geometry" />
        </mxCell>
        <mxCell id="mDyyO91sDNpQwvjCnJdp-69" value="" style="endArrow=classic;html=1;rounded=0;" parent="77e6c97f196da883-7" target="mDyyO91sDNpQwvjCnJdp-68" edge="1">
          <mxGeometry width="50" height="50" relative="1" as="geometry">
            <mxPoint x="80" y="750" as="sourcePoint" />
            <mxPoint x="130" y="580" as="targetPoint" />
          </mxGeometry>
        </mxCell>
        <mxCell id="mDyyO91sDNpQwvjCnJdp-72" value="" style="edgeStyle=orthogonalEdgeStyle;rounded=0;orthogonalLoop=1;jettySize=auto;html=1;" parent="77e6c97f196da883-7" source="mDyyO91sDNpQwvjCnJdp-68" edge="1">
          <mxGeometry relative="1" as="geometry">
            <mxPoint x="80" y="840" as="targetPoint" />
          </mxGeometry>
        </mxCell>
        <mxCell id="AETj799gdBT1766y-k5W-25" value="" style="whiteSpace=wrap;html=1;rounded=0;shadow=0;comic=0;labelBackgroundColor=none;strokeWidth=1;fillColor=#000000;fontFamily=Verdana;fontSize=12;align=center;rotation=0;" vertex="1" parent="77e6c97f196da883-7">
          <mxGeometry x="6.5" y="750" width="147" height="10" as="geometry" />
        </mxCell>
        <mxCell id="AETj799gdBT1766y-k5W-26" value="" style="shape=mxgraph.bpmn.shape;html=1;verticalLabelPosition=bottom;labelBackgroundColor=#ffffff;verticalAlign=top;perimeter=ellipsePerimeter;outline=end;symbol=terminate;rounded=0;shadow=0;comic=0;strokeWidth=1;fontFamily=Verdana;fontSize=12;align=center;" vertex="1" parent="77e6c97f196da883-7">
          <mxGeometry x="65" y="840" width="30" height="30" as="geometry" />
        </mxCell>
        <mxCell id="mDyyO91sDNpQwvjCnJdp-8" value="" style="edgeStyle=orthogonalEdgeStyle;rounded=0;orthogonalLoop=1;jettySize=auto;html=1;" parent="77e6c97f196da883-1" edge="1">
          <mxGeometry relative="1" as="geometry">
            <mxPoint x="130" y="145" as="sourcePoint" />
            <mxPoint x="200" y="145" as="targetPoint" />
          </mxGeometry>
        </mxCell>
        <mxCell id="mDyyO91sDNpQwvjCnJdp-29" value="" style="edgeStyle=orthogonalEdgeStyle;rounded=0;orthogonalLoop=1;jettySize=auto;html=1;" parent="77e6c97f196da883-1" source="mDyyO91sDNpQwvjCnJdp-24" target="mDyyO91sDNpQwvjCnJdp-28" edge="1">
          <mxGeometry relative="1" as="geometry" />
        </mxCell>
        <mxCell id="mDyyO91sDNpQwvjCnJdp-30" value="转人工" style="edgeLabel;html=1;align=center;verticalAlign=middle;resizable=0;points=[];" parent="mDyyO91sDNpQwvjCnJdp-29" vertex="1" connectable="0">
          <mxGeometry x="-0.2978" y="-1" relative="1" as="geometry">
            <mxPoint x="9" y="-1" as="offset" />
          </mxGeometry>
        </mxCell>
        <mxCell id="mDyyO91sDNpQwvjCnJdp-33" style="edgeStyle=orthogonalEdgeStyle;rounded=0;orthogonalLoop=1;jettySize=auto;html=1;entryX=1;entryY=0.5;entryDx=0;entryDy=0;exitX=0.5;exitY=1;exitDx=0;exitDy=0;" parent="77e6c97f196da883-1" source="mDyyO91sDNpQwvjCnJdp-28" target="mDyyO91sDNpQwvjCnJdp-31" edge="1">
          <mxGeometry relative="1" as="geometry" />
        </mxCell>
        <mxCell id="mDyyO91sDNpQwvjCnJdp-43" style="edgeStyle=orthogonalEdgeStyle;rounded=0;orthogonalLoop=1;jettySize=auto;html=1;entryX=0;entryY=0.5;entryDx=0;entryDy=0;" parent="77e6c97f196da883-1" source="mDyyO91sDNpQwvjCnJdp-40" target="mDyyO91sDNpQwvjCnJdp-42" edge="1">
          <mxGeometry relative="1" as="geometry" />
        </mxCell>
        <mxCell id="mDyyO91sDNpQwvjCnJdp-23" style="edgeStyle=orthogonalEdgeStyle;rounded=0;orthogonalLoop=1;jettySize=auto;html=1;entryX=0;entryY=0.5;entryDx=0;entryDy=0;" parent="77e6c97f196da883-1" target="mDyyO91sDNpQwvjCnJdp-22" edge="1">
          <mxGeometry relative="1" as="geometry">
            <mxPoint x="80" y="281" as="sourcePoint" />
            <Array as="points">
              <mxPoint x="80" y="335" />
            </Array>
          </mxGeometry>
        </mxCell>
        <mxCell id="mDyyO91sDNpQwvjCnJdp-16" style="edgeStyle=orthogonalEdgeStyle;rounded=0;orthogonalLoop=1;jettySize=auto;html=1;entryX=0.5;entryY=0;entryDx=0;entryDy=0;" parent="77e6c97f196da883-1" source="mDyyO91sDNpQwvjCnJdp-9" edge="1">
          <mxGeometry relative="1" as="geometry">
            <mxPoint x="80" y="250" as="targetPoint" />
          </mxGeometry>
        </mxCell>
        <mxCell id="mDyyO91sDNpQwvjCnJdp-17" value="审批通过" style="edgeLabel;html=1;align=center;verticalAlign=middle;resizable=0;points=[];" parent="mDyyO91sDNpQwvjCnJdp-16" vertex="1" connectable="0">
          <mxGeometry x="-0.2838" y="1" relative="1" as="geometry">
            <mxPoint x="-22" y="-1" as="offset" />
          </mxGeometry>
        </mxCell>
        <mxCell id="mDyyO91sDNpQwvjCnJdp-37" value="" style="edgeStyle=orthogonalEdgeStyle;rounded=0;orthogonalLoop=1;jettySize=auto;html=1;" parent="77e6c97f196da883-1" source="mDyyO91sDNpQwvjCnJdp-31" target="mDyyO91sDNpQwvjCnJdp-36" edge="1">
          <mxGeometry relative="1" as="geometry" />
        </mxCell>
        <mxCell id="mDyyO91sDNpQwvjCnJdp-41" value="" style="edgeStyle=orthogonalEdgeStyle;rounded=0;orthogonalLoop=1;jettySize=auto;html=1;" parent="77e6c97f196da883-1" source="mDyyO91sDNpQwvjCnJdp-38" target="mDyyO91sDNpQwvjCnJdp-40" edge="1">
          <mxGeometry relative="1" as="geometry" />
        </mxCell>
        <mxCell id="mDyyO91sDNpQwvjCnJdp-53" style="edgeStyle=orthogonalEdgeStyle;rounded=0;orthogonalLoop=1;jettySize=auto;html=1;entryX=1;entryY=0.5;entryDx=0;entryDy=0;" parent="77e6c97f196da883-1" source="mDyyO91sDNpQwvjCnJdp-50" target="mDyyO91sDNpQwvjCnJdp-52" edge="1">
          <mxGeometry relative="1" as="geometry" />
        </mxCell>
      </root>
    </mxGraphModel>
  </diagram>
</mxfile>
